# xmcd
#
# Track frame offsets: 
#        150
#        13592
#        25604
#        35470
#        46988
#        59084
#        69530
#        81756
#        94794
#        109601
#        123311
#
# Disc length: 1824 seconds
#
# Revision: 0
# Processed by: cddbd v1.5.2PL0 Copyright (c) Steve Scherf et al.
# Submitted via: ExactAudioCopyFreeDBPlugin 1.0
#
DISCID=88071e0b
DTITLE=Orbison, Roy - Hank Williams, The Roy Orbison Way
DYEAR=1970
DGENRE=Rock
TTITLE0=Kaw-Liga
TTITLE1=Hey, Good Lookin'
TTITLE2=Jambalaya (On The Bayou)
TTITLE3=(Last Night) I Heard You Crying In Your Sleep
TTITLE4=You Win Again
TTITLE5=Your Cheatin' Heart
TTITLE6=Cold, Cold, Heart
TTITLE7=A Mansion On the Hill
TTITLE8=I Can't Help It, If I'm Still In Love With You
TTITLE9=There'll Be No Teardrops Tonight
TTITLE10=I'm So Lonesome I Could Cry
EXTD=
EXTT0=
EXTT1=
EXTT2=
EXTT3=
EXTT4=
EXTT5=
EXTT6=
EXTT7=
EXTT8=
EXTT9=
EXTT10=
PLAYORDER=
